<?xml version="1.0" encoding="UTF-8" standalone="no"?>
<!-- Created with Inkscape (http://www.inkscape.org/) -->

<svg
   width="16mm"
   height="16mm"
   viewBox="0 0 16 16"
   version="1.1"
   id="svg21"
   inkscape:version="1.2.2 (b0a8486541, 2022-12-01)"
   sodipodi:docname="image-vnd-dwg_16.svg"
   xmlns:inkscape="http://www.inkscape.org/namespaces/inkscape"
   xmlns:sodipodi="http://sodipodi.sourceforge.net/DTD/sodipodi-0.dtd"
   xmlns="http://www.w3.org/2000/svg"
   xmlns:svg="http://www.w3.org/2000/svg">
  <sodipodi:namedview
     id="namedview23"
     pagecolor="#ffffff"
     bordercolor="#000000"
     borderopacity="0.25"
     inkscape:showpageshadow="2"
     inkscape:pageopacity="0.0"
     inkscape:pagecheckerboard="0"
     inkscape:deskcolor="#d1d1d1"
     inkscape:document-units="mm"
     showgrid="true"
     inkscape:zoom="4"
     inkscape:cx="148.625"
     inkscape:cy="49.625"
     inkscape:window-width="1920"
     inkscape:window-height="1008"
     inkscape:window-x="0"
     inkscape:window-y="0"
     inkscape:window-maximized="1"
     inkscape:current-layer="layer1">
    <inkscape:grid
       type="xygrid"
       id="grid25"
       originx="7.9999998"
       originy="7.9999998"
       spacingx="0.52916665"
       spacingy="0.52916665" />
  </sodipodi:namedview>
  <defs
     id="defs18">
    <rect
       x="-0.5"
       y="0"
       width="57.09269"
       height="29.361425"
       id="rect131" />
  </defs>
  <g
     inkscape:label="Ebene 1"
     inkscape:groupmode="layer"
     id="layer1">
    <g
       aria-label="DWG"
       transform="matrix(0.30528989,0,0,0.30528989,-0.55377307,3.8810603)"
       id="text129"
       style="font-size:23.8549px;white-space:pre;shape-inside:url(#rect131);display:inline;fill:#ff9900">
      <path
         d="m 15.458928,13.021798 q 0,4.317737 -2.361635,6.512388 -2.33778,2.170796 -6.5362425,2.170796 H 1.8139253 V 4.672583 h 5.2480781 q 2.5763293,0 4.4608666,0.954196 1.884537,0.954196 2.910298,2.8148782 1.02576,1.8368278 1.02576,4.5801408 z m -2.266215,0.07156 q 0,-3.4112509 -1.693698,-4.9856744 Q 9.8291719,6.5094103 6.7518897,6.5094103 H 3.9608664 V 19.868155 h 2.3139253 q 6.9179213,0 6.9179213,-6.774792 z"
         style="fill:#ff9900"
         id="path5658" />
      <path
         d="M 38.550456,4.672583 34.018025,21.704982 H 31.847229 L 28.531398,10.540888 Q 28.340559,9.8490964 28.149719,9.1573043 27.95888,8.4655121 27.839606,7.9407043 27.720331,7.3920416 27.672621,7.1773475 27.648766,7.4874612 27.410217,8.5132219 27.195523,9.5151278 26.861555,10.612453 L 23.641143,21.704982 H 21.470347 L 16.961771,4.672583 h 2.242361 l 2.647894,10.400737 q 0.286258,1.097325 0.477098,2.123086 0.214694,1.02576 0.333968,1.932247 0.119275,-0.930342 0.357824,-2.027667 0.238549,-1.097325 0.548663,-2.146941 L 26.575296,4.672583 h 2.218506 l 3.124992,10.353027 q 0.333968,1.097325 0.572517,2.194651 0.238549,1.07347 0.357824,1.908392 0.119274,-0.882632 0.333968,-1.908392 0.214694,-1.049616 0.500953,-2.170796 L 36.308095,4.672583 Z"
         style="fill:#ff9900"
         id="path5660" />
      <path
         d="m 48.330969,12.711684 h 5.89216 V 21.0609 q -1.383584,0.453243 -2.791023,0.667937 -1.407439,0.214694 -3.196557,0.214694 -2.647894,0 -4.460866,-1.049616 -1.812972,-1.07347 -2.767168,-3.029572 -0.930342,-1.979957 -0.930342,-4.675561 0,-2.671748 1.049616,-4.6278503 1.049616,-1.9561018 3.005718,-3.0295723 1.979956,-1.0973254 4.77098,-1.0973254 1.431294,0 2.695603,0.2624039 1.288165,0.2624039 2.38549,0.7395019 L 53.173514,7.296622 q -0.906486,-0.4055333 -2.051522,-0.6917921 -1.12118,-0.2862588 -2.33778,-0.2862588 -3.053427,0 -4.77098,1.8368273 -1.693698,1.8368274 -1.693698,5.0333836 0,2.027667 0.644082,3.60209 0.667938,1.550569 2.075377,2.4332 1.407439,0.858777 3.697509,0.858777 1.121181,0 1.908392,-0.119275 0.787212,-0.119274 1.431294,-0.286259 v -5.057239 h -3.745219 z"
         style="fill:#ff9900"
         id="path5662" />
    </g>
  </g>
</svg>
